<svg width="171" height="35" viewBox="0 0 171 35" fill="none" xmlns="http://www.w3.org/2000/svg">
<g clip-path="url(#clip0_551_31644)">
<path d="M23.6043 3.61328C21.1451 3.6206 18.7851 4.58348 17.0227 6.29855L17.9283 8.12034L17.544 8.4257C16.7227 6.98385 15.5392 5.78143 14.1106 4.93737C12.682 4.09332 11.0578 3.63691 9.39861 3.61328C4.21233 3.61328 0.000130817 8.16245 0.000130817 13.4751V24.9481C-0.00436476 25.0461 0.0116284 25.144 0.0470824 25.2354C0.0825364 25.3269 0.136663 25.41 0.20603 25.4793C0.275397 25.5487 0.358478 25.6028 0.449947 25.6383C0.541416 25.6737 0.639283 25.6897 0.73728 25.6852H4.50719C4.59841 25.6859 4.68887 25.6684 4.77322 25.6337C4.85757 25.5989 4.93411 25.5477 4.99837 25.4829C5.06263 25.4182 5.11332 25.3412 5.14742 25.2566C5.18152 25.172 5.19835 25.0814 5.19694 24.9902V13.4066C5.19694 10.774 6.77651 8.59947 9.53024 8.59947C12.0839 8.59947 13.9004 10.5055 13.9004 13.3382V22.8631C13.8954 22.9576 13.9097 23.0522 13.9423 23.1411C13.9749 23.2301 14.0252 23.3114 14.0902 23.3803C14.1552 23.4492 14.2335 23.5043 14.3203 23.542C14.4071 23.5798 14.5007 23.5996 14.5954 23.6002H18.1916C18.2861 23.5996 18.3795 23.5799 18.466 23.542C18.5526 23.5042 18.6306 23.449 18.6951 23.38C18.7597 23.3111 18.8095 23.2296 18.8415 23.1408C18.8735 23.0519 18.8871 22.9574 18.8813 22.8631V13.3171C18.8813 10.5002 20.7874 8.57842 23.341 8.57842C26.0684 8.57842 27.5848 10.7424 27.5848 13.3856V24.9692C27.593 25.1582 27.6746 25.3365 27.8123 25.4663C27.9499 25.5961 28.1328 25.6671 28.3219 25.6642H32.0445C32.1425 25.6687 32.2404 25.6527 32.3318 25.6172C32.4233 25.5818 32.5064 25.5276 32.5757 25.4583C32.6451 25.3889 32.6992 25.3058 32.7347 25.2144C32.7701 25.1229 32.7861 25.025 32.7816 24.927V13.4751C32.7816 8.16245 28.7537 3.61328 23.6043 3.61328Z" fill="#00B463"/>
<path d="M57.2966 4.05027H53.8742C53.7801 4.04452 53.6858 4.05811 53.5972 4.09019C53.5086 4.12227 53.4276 4.17216 53.359 4.2368C53.2904 4.30143 53.2358 4.37941 53.1985 4.46596C53.1612 4.55251 53.1421 4.64579 53.1423 4.74002V5.21918L54.3533 7.1252L54.0268 7.45164C53.0261 6.26917 51.7837 5.3148 50.3833 4.65271C48.9828 3.99062 47.4567 3.63619 45.9078 3.61328C42.9637 3.67695 40.1616 4.8912 38.102 6.99588C36.0423 9.10056 34.8889 11.9282 34.8889 14.873C34.8889 17.8178 36.0423 20.6455 38.102 22.7502C40.1616 24.8548 42.9637 26.0691 45.9078 26.1328C47.4621 26.1144 48.9944 25.7638 50.402 25.1045C51.8096 24.4452 53.0599 23.4925 54.069 22.3102L54.3533 22.5366L53.1423 24.5321V24.9639C53.1409 25.0606 53.1588 25.1567 53.195 25.2464C53.2312 25.3361 53.285 25.4177 53.3532 25.4864C53.4214 25.555 53.5026 25.6094 53.592 25.6463C53.6815 25.6831 53.7774 25.7017 53.8742 25.701H57.2966C57.3946 25.7055 57.4924 25.6896 57.5839 25.6541C57.6754 25.6186 57.7584 25.5645 57.8278 25.4951C57.8972 25.4257 57.9513 25.3427 57.9868 25.2512C58.0222 25.1598 58.0382 25.0619 58.0337 24.9639V4.74002C58.0372 4.64439 58.0202 4.54911 57.9837 4.46063C57.9473 4.37214 57.8922 4.29254 57.8224 4.22715C57.7525 4.16177 57.6694 4.11215 57.5787 4.08164C57.488 4.05113 57.3918 4.04041 57.2966 4.05027ZM45.9078 21.2835C42.1853 21.2835 39.5895 18.6508 39.5895 14.9178C39.5895 11.1847 42.1905 8.46783 45.9078 8.46783C46.7642 8.43293 47.6185 8.57588 48.4168 8.88767C49.2152 9.19945 49.9402 9.67331 50.5463 10.2793C51.1523 10.8854 51.6261 11.6104 51.9379 12.4088C52.2497 13.2071 52.3927 14.0614 52.3578 14.9178C52.3578 18.6403 49.6777 21.2835 45.9078 21.2835Z" fill="#00B463"/>
<path d="M106.174 4.05027H102.757C102.663 4.04455 102.568 4.05813 102.479 4.09016C102.39 4.12218 102.309 4.17198 102.24 4.23654C102.171 4.30109 102.116 4.37904 102.078 4.46561C102.04 4.55218 102.02 4.64554 102.02 4.74002V5.21918L103.231 7.1252L102.904 7.45164C101.902 6.26785 100.658 5.31266 99.256 4.65052C97.8536 3.98838 96.3255 3.63469 94.7748 3.61328C91.8854 3.7531 89.1607 4.99932 87.1652 7.09364C85.1698 9.18796 84.0568 11.9698 84.0568 14.8625C84.0568 17.7552 85.1698 20.537 87.1652 22.6314C89.1607 24.7257 91.8854 25.9719 94.7748 26.1117C96.329 26.093 97.8612 25.7422 99.2687 25.083C100.676 24.4237 101.927 23.4711 102.936 22.2891L103.215 22.5155L102.004 24.5111V24.9429C102.003 25.0398 102.022 25.136 102.059 25.2257C102.095 25.3155 102.15 25.397 102.218 25.4656C102.287 25.5342 102.368 25.5885 102.458 25.6253C102.548 25.6621 102.644 25.6807 102.741 25.68H106.158C106.256 25.6845 106.354 25.6685 106.446 25.633C106.537 25.5976 106.62 25.5434 106.689 25.4741C106.759 25.4047 106.813 25.3216 106.848 25.2302C106.884 25.1387 106.9 25.0408 106.895 24.9429V4.74002C106.899 4.64584 106.882 4.55206 106.846 4.46477C106.811 4.37749 106.757 4.29871 106.689 4.23358C106.621 4.16845 106.54 4.11843 106.451 4.08685C106.362 4.05526 106.268 4.0428 106.174 4.05027ZM94.7748 21.2835C91.047 21.2835 88.4565 18.6508 88.4565 14.9178C88.4565 11.1847 91.0523 8.46783 94.7748 8.46783C95.6311 8.43293 96.4855 8.57588 97.2838 8.88767C98.0821 9.19946 98.8072 9.67331 99.4132 10.2793C100.019 10.8854 100.493 11.6104 100.805 12.4088C101.117 13.2071 101.26 14.0614 101.225 14.9178C101.241 18.6403 98.5552 21.2835 94.7748 21.2835Z" fill="#00B463"/>
<path d="M80.727 4.05078H77.2203C76.657 4.05078 76.3516 4.35091 76.3516 4.6563V15.2237C76.3516 18.5145 74.1876 20.8048 70.8547 20.8048C67.7797 20.8048 65.7895 18.5145 65.7895 15.2237V4.6563C65.7895 4.35091 65.3103 4.05078 65.0102 4.05078H61.2403C61.0833 4.06181 60.9357 4.12917 60.8244 4.24042C60.7132 4.35167 60.6458 4.49935 60.6348 4.6563V15.1868C60.6348 20.8154 65.0523 25.7173 70.8547 25.7173C73.4772 25.7153 76.0094 24.7589 77.9785 23.0268L78.1734 23.2058L76.5938 25.3119V26.1122C76.5938 28.2763 73.3451 29.4872 71.4391 29.4872H70.2281C70.1313 29.4816 70.0342 29.4951 69.9426 29.5269C69.851 29.5588 69.7666 29.6084 69.6942 29.673C69.6218 29.7376 69.5629 29.8158 69.5208 29.9032C69.4787 29.9906 69.4542 30.0854 69.4488 30.1823V33.6468C69.4662 33.84 69.5564 34.0193 69.7011 34.1484C69.8458 34.2775 70.0342 34.3466 70.2281 34.3418H71.4391C77.2309 34.3418 81.4852 30.9615 81.4852 24.5958V4.6563C81.4615 4.47699 81.3693 4.31382 81.228 4.20095C81.0866 4.08809 80.9071 4.03426 80.727 4.05078Z" fill="#00B463"/>
<path d="M155.809 0.180664H115.114C114.333 0.182059 113.584 0.493326 113.033 1.04613C112.481 1.59894 112.171 2.3481 112.171 3.1292V14.876C112.171 18.772 113.719 22.5085 116.474 25.2635C119.228 28.0184 122.965 29.5661 126.861 29.5661H155.82C159.668 29.4932 163.335 27.9132 166.031 25.1657C168.727 22.4183 170.237 18.7227 170.237 14.8734C170.237 11.0241 168.727 7.32848 166.031 4.581C163.335 1.83351 159.668 0.253522 155.82 0.180664H155.809Z" fill="#00B463"/>
<path d="M121.043 9.52637H124.534C126.866 9.52637 128.088 10.453 128.088 12.2538C128.128 12.7308 128.017 13.2085 127.771 13.6188C127.524 14.0291 127.154 14.3511 126.714 14.5389C127.326 14.6641 127.872 15.0088 128.248 15.5082C128.624 16.0075 128.805 16.6272 128.757 17.2505C128.757 19.8831 126.377 20.2254 125.071 20.2254H121.059L121.043 9.52637ZM124.502 14.0229C125.65 14.0229 126.213 13.549 126.213 12.5592C126.213 11.5693 125.634 11.0954 124.502 11.0954H122.923V14.0018L124.502 14.0229ZM125.071 18.6089C126.287 18.6089 126.866 18.0824 126.866 17.0294C126.866 15.9763 126.287 15.4498 125.071 15.4498H122.933V18.6089H125.071Z" fill="white"/>
<path d="M133.601 9.52637H135.965L139.988 20.2254H137.992L137.123 17.8613H132.442L131.574 20.2254H129.578L133.601 9.52637ZM136.56 16.2922L134.791 11.4324L133.022 16.2922H136.56Z" fill="white"/>
<path d="M141.235 9.52637H143.505L148.675 17.6454V9.52637H150.55V20.2254H148.264L143.126 12.1011V20.2254H141.235V9.52637Z" fill="white"/>
<path d="M155.531 15.513H154.599V20.2517H152.693V9.52637H154.583V13.8702H155.483L159.169 9.52637H161.375L157.095 14.5863L161.623 20.2254H159.243L155.531 15.513Z" fill="white"/>
</g>
<defs>
<clipPath id="clip0_551_31644">
<rect width="170.5" height="34.1768" fill="white" transform="translate(0 0.180664)"/>
</clipPath>
</defs>
</svg>
