<?xml version="1.0" encoding="utf-8"?>
<!-- Generator: Adobe Illustrator 24.2.3, SVG Export Plug-In . SVG Version: 6.00 Build 0)  -->
<svg version="1.1" id="Layer_1" xmlns="http://www.w3.org/2000/svg" xmlns:xlink="http://www.w3.org/1999/xlink" x="0px" y="0px"
	 viewBox="0 0 515 235" style="enable-background:new 0 0 515 235;" xml:space="preserve">
<style type="text/css">
	.st0{fill:#1F4362;}
	.st1{fill:#FFFFFF;}
</style>
<path class="st0" d="M29,50.9c0-2.3-0.6-4.1-1.8-5.3c-1.2-1.2-3.4-2.5-6.5-3.8c-5.8-2.2-9.9-4.7-12.5-7.7c-2.5-3-3.8-6.4-3.8-10.4
	c0-4.9,1.7-8.7,5.1-11.7c3.5-3,7.8-4.4,13.1-4.4c3.5,0,6.7,0.8,9.5,2.3c2.8,1.5,4.9,3.6,6.4,6.3c1.5,2.7,2.3,5.8,2.3,9.3H29.1
	c0-2.7-0.6-4.7-1.7-6.1c-1.1-1.4-2.8-2.1-4.9-2.1c-2,0-3.6,0.6-4.7,1.8c-1.1,1.2-1.7,2.8-1.7,4.8c0,1.6,0.6,3,1.9,4.3
	c1.3,1.3,3.5,2.6,6.7,4c5.6,2,9.7,4.5,12.2,7.5c2.6,3,3.8,6.7,3.8,11.3c0,5-1.6,8.9-4.8,11.8c-3.2,2.8-7.5,4.2-13,4.2
	c-3.7,0-7.1-0.8-10.2-2.3c-3.1-1.5-5.5-3.7-7.2-6.6c-1.7-2.8-2.6-6.2-2.6-10.1h11.7c0,3.3,0.6,5.7,1.9,7.2c1.3,1.5,3.4,2.3,6.3,2.3
	C26.9,57.3,29,55.2,29,50.9z M60.5,66H48.9V8.4h11.6V66z M110.6,66H99l-17-37.8V66H70.3V8.4h11.6L99,46.2V8.4h11.6V66z M159.1,59.5
	c-2.2,2.4-5,4.3-8.3,5.5c-3.2,1.2-6.8,1.8-10.7,1.8c-6.6,0-11.8-2-15.4-6.1c-3.7-4.1-5.6-10.1-5.7-17.9V32.4c0-7.9,1.7-14,5.2-18.3
	c3.5-4.3,8.5-6.4,15.2-6.4c6.3,0,11,1.5,14.1,4.6c3.2,3.1,5,7.9,5.5,14.5h-11.3c-0.3-3.7-1.1-6.2-2.3-7.5c-1.2-1.3-3.1-2-5.7-2
	c-3.1,0-5.4,1.1-6.8,3.4c-1.4,2.3-2.2,5.9-2.2,11v10.4c0,5.2,0.8,9.1,2.3,11.5c1.6,2.4,4.2,3.6,7.8,3.6c2.3,0,4.2-0.5,5.6-1.4l1-0.7
	V44.5h-8.2v-8.8h19.8V59.5z M207.7,66h-11.6V41.3H179V66h-11.6V8.4H179v23.3h17.2V8.4h11.6V66z M235.9,50.2l9.7-41.8h13L241.9,66
	h-12.1L213.3,8.4h12.9L235.9,50.2z M276.1,66h-11.6V8.4h11.6V66z M4.6,142V84.4h15.2c6.7,0,12.1,2.1,16.1,6.4
	c4,4.3,6.1,10.1,6.1,17.6v9.3c0,7.6-2,13.5-6,17.8c-4,4.3-9.5,6.4-16.5,6.4H4.6z M16.3,94.1v38.3h3.5c3.9,0,6.6-1,8.2-3
	c1.6-2.1,2.4-5.6,2.5-10.6v-10c0-5.4-0.8-9.1-2.3-11.2c-1.5-2.1-4.1-3.3-7.7-3.4H16.3z M80.2,117.1H62.1v15.3h21.4v9.7H50.4V84.4h33
	v9.7H62.1v13.6h18.1V117.1z M109,126.2l9.7-41.8h13L115.1,142H103L86.5,84.4h12.9L109,126.2z M142.2,126.5c0-2.7,0.6-5.2,1.8-7.4
	c1.2-2.2,3.5-4.7,6.9-7.5c-1.5-2.3-2.6-4.5-3.4-6.5c-0.8-2.1-1.3-4.2-1.3-6.4c0-4.5,1.3-8.2,3.8-11c2.5-2.8,5.9-4.2,10-4.2
	c3.8,0,6.9,1.3,9.3,3.9c2.5,2.6,3.7,5.8,3.7,9.5c0,5-2.1,9.2-6.3,12.5l-3.2,2.6l7.4,10.3c0.9-2.7,1.4-5.6,1.4-8.8h9.5
	c0,7.4-1.4,13.4-4.4,17.9l7.4,10.4h-12.7l-2.1-3c-3.4,2.5-7.3,3.8-11.8,3.8c-4.9,0-8.7-1.5-11.7-4.5
	C143.7,135.3,142.2,131.4,142.2,126.5z M158.9,133.5c2.1,0,4-0.7,5.9-2.1l-9.1-12.9l-0.2,0.2c-1.3,2-2,4.4-2,7
	c0,2.2,0.5,4.1,1.5,5.5C156.1,132.8,157.4,133.5,158.9,133.5z M156.3,98.6c0,1.9,0.9,4.2,2.7,6.9l1.9-1.4c1.1-0.8,1.9-1.7,2.4-2.6
	c0.5-0.9,0.7-2.1,0.7-3.7c0-1.4-0.4-2.5-1.1-3.4c-0.7-0.9-1.6-1.4-2.7-1.4c-1.2,0-2.1,0.5-2.8,1.6C156.6,95.5,156.3,96.9,156.3,98.6
	z M236.2,84.4v39.9c-0.1,6-1.7,10.6-4.9,13.8c-3.2,3.2-7.9,4.7-14,4.7c-6.2,0-10.9-1.6-14.2-4.8c-3.2-3.2-4.9-7.9-4.9-14V84.4h11.7
	V124c0,3.3,0.5,5.6,1.6,7c1.1,1.4,3,2.1,5.7,2.1c2.8,0,4.7-0.7,5.7-2.1c1-1.4,1.6-3.7,1.6-6.8V84.4H236.2z M285.3,142h-11.6
	l-17-37.8V142H245V84.4h11.6l17.1,37.8V84.4h11.6V142z M334.9,142h-11.6l-17-37.8V142h-11.6V84.4h11.6l17.1,37.8V84.4h11.6V142z
	 M356.4,142h-11.6V84.4h11.6V142z M396.5,132.3h20.4v9.7h-32.1V84.4h11.6V132.3z M435.2,132.3h20.4v9.7h-32.1V84.4h11.6V132.3z
	 M474,121.7V142h-11.6V84.4H482c5.7,0,10.2,1.8,13.6,5.3c3.4,3.5,5.1,8.1,5.1,13.8c0,5.6-1.7,10.1-5,13.4c-3.4,3.3-8,4.9-13.9,4.9
	H474z M474,112h8c2.2,0,3.9-0.7,5.1-2.2c1.2-1.5,1.8-3.6,1.8-6.3c0-2.9-0.6-5.2-1.9-6.8c-1.2-1.7-2.9-2.6-5-2.6H474V112z"/>
<path class="st0" d="M23.8,176.5c-0.2,3.7-1.2,6.4-3,8.2c-1.8,1.7-4.2,2.6-7.3,2.6c-3.2,0-5.7-1.2-7.6-3.6c-1.9-2.4-2.8-5.7-2.8-9.9
	v-7.2c0-4.2,0.9-7.4,2.8-9.8c1.9-2.4,4.5-3.5,7.8-3.5c3.1,0,5.5,0.9,7.2,2.7c1.7,1.8,2.7,4.5,2.9,8.2h-2.6c-0.2-3-1-5.1-2.1-6.4
	c-1.2-1.3-2.9-1.9-5.3-1.9c-2.5,0-4.5,0.9-5.8,2.8c-1.4,1.9-2.1,4.6-2.1,8.1v7.1c0,3.5,0.7,6.3,2,8.2c1.3,2,3.3,2.9,5.7,2.9
	c2.6,0,4.4-0.6,5.6-1.9c1.2-1.3,1.8-3.4,2.1-6.4H23.8z M49.4,186.8h-2.6V171H31.2v15.9h-2.6v-33.1h2.6v14.9h15.6v-14.9h2.6V186.8z
	 M71.1,177.6H58.7l-2.8,9.3h-2.7l10.6-33.1h2.4l10.6,33.1H74L71.1,177.6z M59.5,175.1h10.9l-5.5-17.8L59.5,175.1z M90.3,173h-7.7
	v13.8H80v-33.1H89c3,0,5.4,0.9,7,2.6c1.7,1.7,2.5,4.1,2.5,7.2c0,2.1-0.5,4-1.5,5.6c-1,1.6-2.4,2.7-4.2,3.3l6.9,14.1v0.3H97L90.3,173
	z M82.6,170.6h6.9c2,0,3.5-0.7,4.7-2c1.2-1.3,1.8-3.1,1.8-5.2c0-2.3-0.6-4.1-1.8-5.4c-1.2-1.3-2.9-1.9-5.1-1.9h-6.4V170.6z
	 M121.1,156.2h-9.4v30.7h-2.6v-30.7h-9.4v-2.5h21.4V156.2z M140.3,171h-12.9v13.4h14.8v2.4h-17.4v-33.1h17.3v2.5h-14.7v12.4h12.9
	V171z M156.7,173H149v13.8h-2.6v-33.1h9.1c3,0,5.4,0.9,7,2.6c1.7,1.7,2.5,4.1,2.5,7.2c0,2.1-0.5,4-1.5,5.6c-1,1.6-2.4,2.7-4.2,3.3
	l6.9,14.1v0.3h-2.8L156.7,173z M149,170.6h6.9c2,0,3.5-0.7,4.7-2c1.2-1.3,1.8-3.1,1.8-5.2c0-2.3-0.6-4.1-1.8-5.4
	c-1.2-1.3-2.9-1.9-5.1-1.9H149V170.6z M185.8,171H173v13.4h14.8v2.4h-17.4v-33.1h17.3v2.5H173v12.4h12.9V171z M191.9,186.8v-33.1
	h7.8c3.6,0,6.4,1.2,8.5,3.5c2.1,2.3,3.2,5.5,3.2,9.5v6.9c0,4.2-1.1,7.4-3.2,9.7c-2.1,2.3-5.1,3.5-8.9,3.5H191.9z M194.5,156.2v28.3
	h5c3,0,5.2-0.9,6.9-2.7c1.6-1.8,2.5-4.5,2.5-7.9v-6.9c0-3.4-0.8-6-2.4-7.9c-1.6-1.9-3.9-2.8-6.9-2.8H194.5z M249.6,177.6h-12.4
	l-2.8,9.3h-2.7l10.6-33.1h2.4l10.6,33.1h-2.7L249.6,177.6z M237.9,175.1h10.9l-5.5-17.8L237.9,175.1z M278,176.5
	c-0.2,3.7-1.2,6.4-3,8.2c-1.8,1.7-4.2,2.6-7.3,2.6c-3.2,0-5.7-1.2-7.6-3.6c-1.8-2.4-2.8-5.7-2.8-9.9v-7.2c0-4.2,0.9-7.4,2.8-9.8
	c1.9-2.4,4.5-3.5,7.8-3.5c3.1,0,5.5,0.9,7.2,2.7c1.7,1.8,2.7,4.5,2.9,8.2h-2.6c-0.2-3-1-5.1-2.1-6.4c-1.2-1.3-2.9-1.9-5.3-1.9
	c-2.5,0-4.5,0.9-5.8,2.8c-1.4,1.9-2.1,4.6-2.1,8.1v7.1c0,3.5,0.7,6.3,2,8.2c1.4,2,3.3,2.9,5.7,2.9c2.6,0,4.4-0.6,5.6-1.9
	c1.2-1.3,1.8-3.4,2.1-6.4H278z M302.8,176.5c-0.2,3.7-1.2,6.4-3,8.2c-1.8,1.7-4.2,2.6-7.3,2.6c-3.2,0-5.7-1.2-7.6-3.6
	c-1.9-2.4-2.8-5.7-2.8-9.9v-7.2c0-4.2,0.9-7.4,2.8-9.8c1.9-2.4,4.5-3.5,7.8-3.5c3.1,0,5.5,0.9,7.2,2.7c1.7,1.8,2.7,4.5,2.9,8.2h-2.6
	c-0.2-3-1-5.1-2.1-6.4c-1.2-1.3-2.9-1.9-5.3-1.9c-2.5,0-4.5,0.9-5.8,2.8c-1.4,1.9-2.1,4.6-2.1,8.1v7.1c0,3.5,0.7,6.3,2,8.2
	c1.3,2,3.3,2.9,5.7,2.9c2.6,0,4.4-0.6,5.6-1.9c1.2-1.3,1.8-3.4,2.1-6.4H302.8z M328.2,173.9c0,4.3-0.9,7.6-2.8,9.9
	c-1.9,2.3-4.5,3.5-7.9,3.5c-3.4,0-6-1.2-7.9-3.5c-1.9-2.3-2.9-5.6-2.9-9.9v-7.2c0-4.3,0.9-7.6,2.8-9.9c1.9-2.4,4.5-3.5,7.9-3.5
	c3.4,0,6,1.2,7.9,3.5c1.9,2.4,2.8,5.7,2.8,10V173.9z M325.5,166.7c0-3.6-0.7-6.3-2.1-8.2c-1.4-1.8-3.4-2.7-6-2.7
	c-2.5,0-4.5,0.9-5.9,2.7c-1.4,1.8-2.2,4.4-2.2,8v7.4c0,3.6,0.7,6.4,2.2,8.2c1.4,1.8,3.4,2.7,6,2.7c2.6,0,4.6-0.9,6-2.7
	c1.4-1.8,2.1-4.6,2.1-8.2V166.7z M352.7,153.7v23.5c0,3.2-0.9,5.7-2.6,7.4c-1.7,1.8-4.1,2.6-7.3,2.6c-3.2,0-5.6-0.9-7.3-2.6
	c-1.7-1.7-2.5-4.3-2.5-7.6v-23.4h2.6V177c0,5.2,2.4,7.8,7.3,7.8c4.8,0,7.2-2.5,7.2-7.6v-23.5H352.7z M379.2,186.8h-2.6L361,158.6
	v28.2h-2.6v-33.1h2.6l15.7,28.3v-28.3h2.6V186.8z M403.8,156.2h-9.4v30.7h-2.6v-30.7h-9.4v-2.5h21.4V156.2z M420.7,177.6h-12.4
	l-2.8,9.3h-2.7l10.6-33.1h2.4l10.6,33.1h-2.7L420.7,177.6z M409,175.1H420l-5.5-17.8L409,175.1z M450.4,186.8h-2.6l-15.6-28.2v28.2
	h-2.6v-33.1h2.6l15.7,28.3v-28.3h2.6V186.8z M474.9,156.2h-9.4v30.7h-2.6v-30.7h-9.4v-2.5h21.4V156.2z M493.9,178.7
	c0-1.8-0.5-3.3-1.6-4.4c-1-1.1-3-2.1-5.9-3c-2.9-1-5-2.1-6.3-3.3c-1.8-1.6-2.7-3.6-2.7-6.2c0-2.5,0.9-4.6,2.6-6.2
	c1.7-1.6,4-2.4,6.8-2.4c2.8,0,5.1,0.9,6.9,2.8c1.8,1.9,2.7,4.2,2.7,7.1h-2.6c0-2.2-0.6-4-1.9-5.4c-1.2-1.4-2.9-2.1-5.1-2.1
	c-2.1,0-3.7,0.6-5,1.7c-1.2,1.1-1.8,2.6-1.8,4.4c0,1.7,0.6,3,1.7,4.1c1.1,1.1,2.9,2,5.4,2.8c2.5,0.8,4.4,1.7,5.6,2.6
	c1.3,0.9,2.2,1.9,2.8,3.1s0.9,2.6,0.9,4.2c0,2.6-0.9,4.7-2.6,6.3c-1.7,1.6-4.1,2.4-6.9,2.4c-1.9,0-3.7-0.4-5.3-1.2
	c-1.6-0.8-2.8-1.9-3.8-3.4c-0.9-1.5-1.3-3.3-1.3-5.3h2.6c0,2.3,0.7,4.2,2.1,5.5c1.4,1.3,3.3,2,5.7,2c2.1,0,3.8-0.6,5-1.7
	C493.2,182.1,493.9,180.6,493.9,178.7z"/>
<rect y="202.6" class="st0" width="3" height="32.4"/>
<rect x="9.1" y="202.6" class="st0" width="3" height="32.4"/>
<rect x="18.2" y="202.6" class="st0" width="3" height="32.4"/>
<rect x="27.3" y="202.6" class="st0" width="3" height="32.4"/>
<rect x="36.5" y="202.6" class="st0" width="3" height="32.4"/>
<rect x="45.6" y="202.6" class="st0" width="3" height="32.4"/>
<rect x="54.7" y="202.6" class="st0" width="3" height="32.4"/>
<rect x="63.8" y="202.6" class="st0" width="3" height="32.4"/>
<rect x="72.9" y="202.6" class="st0" width="3" height="32.4"/>
<rect x="82" y="202.6" class="st0" width="3" height="32.4"/>
<rect x="91.2" y="202.6" class="st0" width="3" height="32.4"/>
<rect x="100.3" y="202.6" class="st0" width="3" height="32.4"/>
<rect x="109.4" y="202.6" class="st0" width="3" height="32.4"/>
<rect x="118.5" y="202.6" class="st0" width="3" height="32.4"/>
<rect x="127.6" y="202.6" class="st0" width="3" height="32.4"/>
<rect x="136.7" y="202.6" class="st0" width="3" height="32.4"/>
<rect x="145.9" y="202.6" class="st0" width="3" height="32.4"/>
<rect x="155" y="202.6" class="st0" width="3" height="32.4"/>
<rect x="164.1" y="202.6" class="st0" width="3" height="32.4"/>
<rect x="173.2" y="202.6" class="st0" width="3" height="32.4"/>
<rect x="182.3" y="202.6" class="st0" width="3" height="32.4"/>
<rect x="191.4" y="202.6" class="st0" width="3" height="32.4"/>
<rect x="200.6" y="202.6" class="st0" width="3" height="32.4"/>
<rect x="209.7" y="202.6" class="st0" width="3" height="32.4"/>
<rect x="218.8" y="202.6" class="st0" width="3" height="32.4"/>
<rect x="227.9" y="202.6" class="st0" width="3" height="32.4"/>
<rect x="237" y="202.6" class="st0" width="3" height="32.4"/>
<rect x="246.1" y="202.6" class="st0" width="3" height="32.4"/>
<rect x="255.3" y="202.6" class="st0" width="3" height="32.4"/>
<rect x="264.4" y="202.6" class="st0" width="3" height="32.4"/>
<rect x="273.5" y="202.6" class="st0" width="3" height="32.4"/>
<rect x="282.6" y="202.6" class="st0" width="3" height="32.4"/>
<rect x="291.7" y="202.6" class="st0" width="3" height="32.4"/>
<rect x="300.8" y="202.6" class="st0" width="3" height="32.4"/>
<rect x="310" y="202.6" class="st0" width="3" height="32.4"/>
<rect x="319.1" y="202.6" class="st0" width="3" height="32.4"/>
<rect x="328.2" y="202.6" class="st0" width="3" height="32.4"/>
<rect x="337.3" y="202.6" class="st0" width="3" height="32.4"/>
<rect x="346.4" y="202.6" class="st0" width="3" height="32.4"/>
<rect x="355.5" y="202.6" class="st0" width="3" height="32.4"/>
<rect x="364.7" y="202.6" class="st0" width="3" height="32.4"/>
<rect x="373.8" y="202.6" class="st0" width="3" height="32.4"/>
<rect x="382.9" y="202.6" class="st0" width="3" height="32.4"/>
<rect x="392" y="202.6" class="st0" width="3" height="32.4"/>
<rect x="401.1" y="202.6" class="st0" width="3" height="32.4"/>
<rect x="410.2" y="202.6" class="st0" width="3" height="32.4"/>
<rect x="419.4" y="202.6" class="st0" width="3" height="32.4"/>
<rect x="428.5" y="202.6" class="st0" width="3" height="32.4"/>
<rect x="437.6" y="202.6" class="st0" width="3" height="32.4"/>
<rect x="446.7" y="202.6" class="st0" width="3" height="32.4"/>
<rect x="455.8" y="202.6" class="st0" width="3" height="32.4"/>
<rect x="464.9" y="202.6" class="st0" width="3" height="32.4"/>
<rect x="474.1" y="202.6" class="st0" width="3" height="32.4"/>
<rect x="483.2" y="202.6" class="st0" width="3" height="32.4"/>
<rect x="492.3" y="202.6" class="st0" width="3" height="32.4"/>
</svg>
